<svg width="170" height="44" viewBox="0 0 170 44" fill="none" xmlns="http://www.w3.org/2000/svg">
<path d="M82.5975 27.3874C81.2668 26.6783 80.2267 25.6937 79.4782 24.4345C78.7287 23.1753 78.3545 21.7466 78.3545 20.1472C78.3545 18.5478 78.7287 17.119 79.4782 15.8598C80.2267 14.6007 81.2668 13.616 82.5975 12.9069C83.9282 12.1978 85.4314 11.8428 87.1071 11.8428C88.7828 11.8428 90.2807 12.1978 91.602 12.9069C92.9223 13.6171 93.9572 14.6007 94.7067 15.8598C95.4552 17.119 95.8304 18.5478 95.8304 20.1472C95.8304 21.7466 95.4562 23.1753 94.7067 24.4345C93.9572 25.6937 92.9223 26.6783 91.602 27.3874C90.2807 28.0975 88.7828 28.4515 87.1071 28.4515C85.4314 28.4515 83.9282 28.0965 82.5975 27.3874ZM90.0194 23.4C90.7783 22.5902 91.1578 21.507 91.1578 20.1472C91.1578 18.7873 90.7783 17.7041 90.0194 16.8943C89.2605 16.0845 88.2894 15.6796 87.1071 15.6796C85.9248 15.6796 84.9485 16.0845 84.1802 16.8943C83.4108 17.7041 83.0271 18.7884 83.0271 20.1472C83.0271 21.506 83.4118 22.5902 84.1802 23.4C84.9485 24.2098 85.9248 24.6147 87.1071 24.6147C88.2894 24.6147 89.2605 24.2098 90.0194 23.4Z" fill="white"/>
<path d="M147.638 27.3874C146.307 26.6783 145.267 25.6937 144.519 24.4345C143.769 23.1753 143.395 21.7466 143.395 20.1472C143.395 18.5478 143.769 17.119 144.519 15.8598C145.267 14.6007 146.307 13.616 147.638 12.9069C148.969 12.1978 150.472 11.8428 152.148 11.8428C153.823 11.8428 155.321 12.1978 156.643 12.9069C157.963 13.6171 158.998 14.6007 159.747 15.8598C160.496 17.119 160.871 18.5478 160.871 20.1472C160.871 21.7466 160.497 23.1753 159.747 24.4345C158.998 25.6937 157.963 26.6783 156.643 27.3874C155.321 28.0975 153.823 28.4515 152.148 28.4515C150.472 28.4515 148.969 28.0965 147.638 27.3874ZM155.059 23.4C155.818 22.5902 156.197 21.507 156.197 20.1472C156.197 18.7873 155.818 17.7041 155.059 16.8943C154.3 16.0845 153.329 15.6796 152.147 15.6796C150.964 15.6796 149.988 16.0845 149.22 16.8943C148.45 17.7041 148.067 18.7884 148.067 20.1472C148.067 21.506 148.451 22.5902 149.22 23.4C149.988 24.2098 150.964 24.6147 152.147 24.6147C153.329 24.6147 154.3 24.2098 155.059 23.4Z" fill="white"/>
<path d="M55.5251 19.4418C54.855 18.5526 53.9288 17.9177 52.7455 17.5382C53.6131 17.0782 54.2874 16.4486 54.7714 15.6495C55.2543 14.8503 55.4958 13.9409 55.4958 12.9213C55.4958 11.2424 54.8205 9.91323 53.4699 8.93388C52.1194 7.95452 50.1824 7.46484 47.66 7.46484H44.4403L37.5474 14.1412V28.451H48.2516C50.9517 28.451 53.0069 27.9561 54.417 26.9672C55.8261 25.9783 56.5307 24.5644 56.5307 22.7244C56.5307 21.4249 56.1951 20.3311 55.5251 19.4418ZM42.3078 11.1226H47.0683C48.2506 11.1226 49.1475 11.3282 49.759 11.7373C50.3695 12.1475 50.6757 12.7623 50.6757 13.5816C50.6757 14.4009 50.3695 15.0209 49.759 15.4407C49.1475 15.8604 48.2506 16.0702 47.0683 16.0702H42.3078V11.1236V11.1226ZM50.75 24.1637C50.1092 24.5834 49.1579 24.7933 47.8962 24.7933H42.3078V19.6061H47.8962C50.4395 19.6061 51.7106 20.4752 51.7106 22.2145C51.7106 23.0943 51.3897 23.744 50.75 24.1637Z" fill="white"/>
<path d="M124.159 16.04H127.581V12.4416H123.618V8.51465H119.006V12.4416H116.552V16.04H119.006H123.618H124.159Z" fill="white"/>
<path d="M125.599 24.7346C124.968 24.7346 124.48 24.5502 124.136 24.1803C123.791 23.8104 123.618 23.2857 123.618 22.6063V16.1006L119.005 20.5692V22.6667C119.005 24.5661 119.523 26.0054 120.558 26.9837C121.593 27.9631 123.056 28.4528 124.949 28.4528C125.678 28.4528 126.373 28.3669 127.034 28.1984C127.694 28.0288 128.25 27.7744 128.704 27.4342L127.462 24.1358C126.949 24.5353 126.328 24.7357 125.599 24.7357V24.7346Z" fill="white"/>
<path d="M138.107 12.6818C137.17 13.0814 136.426 13.6707 135.874 14.4508V12.403L131.468 16.6713V28.4532H136.081V20.8378C136.081 19.3391 136.455 18.2145 137.205 17.4651C137.953 16.7158 138.988 16.3406 140.309 16.3406C140.487 16.3406 140.831 16.3607 141.344 16.401V12.084C140.121 12.084 139.042 12.2843 138.107 12.6839V12.6818Z" fill="white"/>
<path d="M163.274 10.7303V28.4509H167.887V6.26172L163.274 10.7303Z" fill="white"/>
<path d="M102.139 12.3213H97.7734V28.451H102.139V12.3213Z" fill="white"/>
<path d="M112.218 13.8807C111.005 12.6819 109.413 12.082 107.443 12.082C106.359 12.082 105.362 12.2675 104.456 12.6364C103.583 12.9925 102.848 13.4938 102.25 14.1361L104.604 16.4149C105.074 16.2242 105.607 16.1288 106.201 16.1288C107.245 16.1288 108.044 16.4436 108.596 17.0731C109.148 17.7027 109.424 18.6577 109.424 19.936V28.4502H114.037V19.2163C114.037 16.858 113.43 15.0784 112.218 13.8796V13.8807Z" fill="white"/>
<path d="M63.702 27.068C62.0096 26.1459 60.6789 24.8655 59.7099 23.229C58.7408 21.5925 58.2568 19.7419 58.2568 17.6783C58.2568 15.6146 58.7408 13.7651 59.7099 12.1275C60.6789 10.491 62.0086 9.21066 63.702 8.28854C65.3944 7.36642 67.298 6.9043 69.4106 6.9043C71.1908 6.9043 72.8006 7.22227 74.239 7.8561C75.6774 8.49098 76.8847 9.40356 77.8642 10.5938L74.8118 13.4514C73.4226 11.8244 71.7009 11.0114 69.6458 11.0114C68.3736 11.0114 67.2394 11.2944 66.2411 11.8594C65.2428 12.4243 64.4651 13.2139 63.9079 14.2251C63.3508 15.2373 63.0717 16.3884 63.0717 17.6772C63.0717 18.9661 63.3508 20.1171 63.9079 21.1293C64.4651 22.1415 65.2439 22.9301 66.2411 23.4951C67.2394 24.06 68.3736 24.343 69.6458 24.343C71.6999 24.343 73.4215 23.5194 74.8118 21.8734L77.8642 24.7298C76.8858 25.9403 75.6721 26.8624 74.2244 27.4973C72.7766 28.1322 71.1615 28.4491 69.3813 28.4491C67.2875 28.4491 65.3944 27.988 63.702 27.0648V27.068Z" fill="white"/>
<path d="M26.2651 7.76386H10.2704C8.96996 7.76386 8.15669 6.33616 8.80689 5.19358L9.58671 3.82418C9.88881 3.29423 10.446 2.96777 11.0502 2.96777H25.4852C26.0894 2.96777 26.6466 3.29423 26.9487 3.82418L27.7285 5.19252C28.3787 6.3351 27.5655 7.76386 26.2651 7.76386Z" fill="#FCB533"/>
<path d="M34.1668 16.4993C34.4689 17.0292 34.4689 17.6821 34.1668 18.2131L32.4588 21.2127L32.4107 21.2964C32.1086 21.8264 31.5514 22.1528 30.9472 22.1528H5.58733C4.98312 22.1528 4.42596 21.8264 4.12386 21.2964L4.07577 21.2127L2.36769 18.2131C2.06559 17.6832 2.06559 17.0303 2.36769 16.4993L4.07577 13.4997L4.12386 13.416C4.42596 12.886 4.98312 12.5596 5.58733 12.5596H30.9472C31.5514 12.5596 32.1086 12.886 32.4107 13.416L32.4588 13.4997L34.1668 16.4993Z" fill="#FCB533"/>
<path d="M26.2651 26.9492C27.5655 26.9492 28.3787 28.3769 27.7285 29.5195L26.9487 30.8889C26.6466 31.4189 26.0894 31.7453 25.4852 31.7453H11.0502C10.446 31.7453 9.88881 31.4189 9.58671 30.8889L8.80689 29.5195C8.15669 28.3769 8.96996 26.9492 10.2704 26.9492H26.2651Z" fill="#FCB533"/>
<path d="M150.037 36.7003C149.787 37.1455 149.419 37.4974 148.932 37.7592C148.445 38.0199 147.856 38.1503 147.165 38.1503H146.103V40.9039H143.423V32.2402H147.165C148.211 32.2402 149.013 32.5095 149.572 33.0479C150.131 33.5863 150.41 34.3081 150.41 35.2143C150.41 35.7613 150.286 36.2562 150.036 36.7014L150.037 36.7003ZM147.696 35.2133C147.696 34.6833 147.418 34.4183 146.863 34.4183H146.103V36.0093H146.863C147.418 36.0093 147.696 35.7443 147.696 35.2143V35.2133Z" fill="white"/>
<path d="M155.552 40.9039L153.947 37.7952H153.934V40.9039H151.255V32.2402H155.238C155.93 32.2402 156.521 32.3642 157.012 32.6133C157.502 32.8624 157.871 33.2005 158.115 33.6287C158.361 34.0569 158.483 34.5402 158.483 35.0787C158.483 35.6584 158.325 36.1725 158.007 36.6208C157.689 37.0692 157.232 37.3914 156.637 37.5875L158.496 40.9039H155.551H155.552ZM153.935 35.9838H154.997C155.254 35.9838 155.448 35.9245 155.576 35.8068C155.705 35.6892 155.77 35.5026 155.77 35.2504C155.77 35.0225 155.703 34.8423 155.571 34.7119C155.438 34.5816 155.247 34.5159 154.997 34.5159H153.935V35.9838Z" fill="white"/>
<path d="M161.291 40.4141C160.619 40.0304 160.086 39.5005 159.692 38.8232C159.298 38.1459 159.1 37.3838 159.1 36.5349C159.1 35.6859 159.298 34.9238 159.692 34.2465C160.086 33.5692 160.619 33.0414 161.291 32.6619C161.963 32.2825 162.701 32.0928 163.506 32.0928C164.311 32.0928 165.047 32.2825 165.715 32.6619C166.383 33.0414 166.912 33.5692 167.302 34.2465C167.692 34.9238 167.887 35.6869 167.887 36.5349C167.887 37.3828 167.692 38.1459 167.302 38.8232C166.912 39.5005 166.381 40.0304 165.709 40.4141C165.037 40.7978 164.303 40.9896 163.506 40.9896C162.71 40.9896 161.963 40.7978 161.291 40.4141ZM164.737 37.9361C165.026 37.5895 165.171 37.122 165.171 36.5349C165.171 35.9477 165.026 35.4686 164.737 35.1209C164.447 34.7743 164.036 34.6005 163.505 34.6005C162.974 34.6005 162.552 34.7743 162.262 35.1209C161.973 35.4675 161.827 35.9392 161.827 36.5349C161.827 37.1305 161.973 37.5895 162.262 37.9361C162.552 38.2826 162.966 38.4565 163.505 38.4565C164.045 38.4565 164.447 38.2837 164.737 37.9361Z" fill="white"/>
</svg>
